PathFileType	4	(X/Y/Z)	D:\TRACE\spotREDO_2-26-24\spot_Both_Motion_3_10-platform.trc
DataRate	CameraRate	NumFrames	NumMarkers	Units	OrigDataRate	OrigDataStartFrame	OrigNumFrames
100.00	100.00	      66	5	mm	100.00	6126	      7000
Frame#	Time	Left_Front			Right_Front			Left_Aft			Right_Aft			Post			
		X1	Y1	Z1	X2	Y2	Z2	X3	Y3	Z3	X4	Y4	Z4	X5	Y5	Z5	

6126	61.250	-702.36884	19.95807	-569.26355	712.34723	25.43245	-484.31421	-773.93658	-20.82973	648.71161	795.53345	-13.50736	654.17151	-8.55087	662.67670	-950.52515	
6127	61.260	-702.39343	19.84065	-569.26257	712.16504	25.36448	-484.34909	-773.93158	-20.75503	648.68573	795.51880	-13.43984	654.25824	-8.52356	662.54199	-950.81055	
6128	61.270	-702.39667	19.87067	-569.27020	712.18488	25.33340	-484.39600	-773.92719	-20.72795	648.64496	795.37512	-13.52056	654.08392	-8.46248	662.43604	-950.94763	
6129	61.280	-702.39661	19.86401	-569.26862	712.33826	25.28643	-484.39044	-773.96887	-20.64997	648.64624	795.43445	-13.41424	654.05927	-8.47734	662.37646	-951.06641	
6130	61.290	-702.49182	19.80749	-569.33588	712.25635	25.22392	-484.38031	-773.95142	-20.57812	648.59570	795.41913	-13.39718	654.06604	-8.56894	662.31458	-951.17865	
6131	61.300	-702.52222	19.68121	-569.32355	712.07098	25.14022	-484.39523	-774.03699	-20.51774	648.58557	795.28827	-13.40242	654.06317	-8.68790	662.21698	-951.22351	
6132	61.310	-702.55219	19.60967	-569.32520	712.01672	25.07617	-484.47278	-774.07245	-20.51248	648.57135	795.27472	-13.36304	654.05176	-8.70135	662.12317	-951.18781	
6133	61.320	-702.53168	19.52016	-569.32135	711.79816	25.19471	-484.45490	-774.14191	-20.50874	648.61786	795.26599	-13.32506	654.03363	-8.68589	662.06018	-951.12903	
6134	61.330	-702.61682	19.60630	-569.39252	711.96765	25.11598	-484.39462	-774.08899	-20.45260	648.60083	795.33942	-13.23989	654.06763	-8.66421	661.95563	-950.97998	
6135	61.340	-702.68042	19.58311	-569.36230	711.75458	25.25604	-484.41721	-774.17847	-20.41085	648.60626	795.35583	-13.22743	654.10126	-8.73441	661.91333	-950.80658	
6136	61.350	-702.69202	19.51925	-569.36884	711.74451	25.15820	-484.46234	-774.15973	-20.43233	648.60040	795.33252	-13.20698	654.07922	-8.76952	661.78650	-950.70801	
6137	61.360	-702.73798	19.39780	-569.33374	711.59088	25.10393	-484.50140	-774.25128	-20.37822	648.65491	795.19690	-13.30339	654.05658	-8.82984	661.71088	-950.70013	
6138	61.370	-702.75085	19.34916	-569.40015	711.58643	25.11554	-484.51761	-774.27008	-20.39653	648.62921	795.16833	-13.31864	654.06042	-8.83116	661.72418	-950.72595	
6139	61.380	-702.84509	19.39566	-569.37189	711.51752	25.08454	-484.50299	-774.33624	-20.35246	648.62634	795.18439	-13.24740	654.07410	-8.83909	661.75867	-950.96118	
6140	61.390	-702.92590	19.44738	-569.39539	711.52350	25.16387	-484.49649	-774.42499	-20.24248	648.62372	795.22656	-13.18452	654.09796	-8.82408	661.79572	-951.15002	
6141	61.400	-703.02136	19.55701	-569.39154	711.50671	25.16246	-484.46338	-774.47174	-20.19986	648.65192	795.16687	-13.25154	654.05096	-8.89928	661.78387	-951.30682	
6142	61.410	-703.06714	19.51555	-569.41638	711.39630	25.07280	-484.51028	-774.53131	-20.24911	648.67737	794.99750	-13.33664	654.07709	-9.02283	661.76831	-951.44128	
6143	61.420	-703.15546	19.49609	-569.45453	711.30115	25.02749	-484.49576	-774.55957	-20.22348	648.70642	794.82629	-13.38696	654.11780	-9.16225	661.78882	-951.48309	
6144	61.430	-703.21552	19.50068	-569.46576	711.30762	25.00255	-484.48535	-774.60815	-20.27533	648.72192	794.73248	-13.36919	654.11157	-9.23312	661.80444	-951.50824	
6145	61.440	-703.25183	19.52839	-569.45477	711.29340	25.09477	-484.42960	-774.73755	-20.23751	648.70221	794.74512	-13.37495	654.11761	-9.23849	661.87421	-951.38129	
6146	61.450	-703.30109	19.56319	-569.45184	711.32886	25.11497	-484.42462	-774.76447	-20.22415	648.68060	794.84265	-13.26194	654.07990	-9.27640	661.92114	-951.13782	
6147	61.460	-703.37634	19.48392	-569.44958	711.22296	25.09116	-484.44910	-774.83630	-20.20429	648.75903	794.62634	-13.30668	654.11743	-9.47606	661.88794	-950.91772	
6148	61.470	-703.44641	19.47583	-569.46942	711.08435	25.01256	-484.42932	-774.92896	-20.27604	648.72003	794.43475	-13.38972	654.13312	-9.48334	661.85443	-950.73120	
6149	61.480	-703.35114	19.33563	-569.59021	710.80975	25.18562	-484.52618	-775.09167	-20.32707	648.78754	794.21375	-13.40913	654.16577	-9.66257	661.84814	-950.48938	
6150	61.490	-703.58777	19.49429	-569.46930	710.73291	25.20763	-484.55350	-775.19781	-20.32302	648.75421	794.12982	-13.40799	654.15753	-9.85421	661.92529	-950.41113	
6151	61.500	-703.58661	19.46643	-569.47510	710.74133	25.32921	-484.52277	-775.31799	-20.32559	648.72882	794.08154	-13.39113	654.16669	-10.04816	662.02277	-950.45508	
6152	61.510	-703.56720	19.47856	-569.54297	710.68689	25.35914	-484.53217	-775.36890	-20.35404	648.74738	794.04156	-13.39746	654.19452	-10.07745	661.99573	-950.65497	
6153	61.520	-703.66821	19.51412	-569.52179	710.60095	25.31689	-484.45786	-775.52429	-20.41417	648.76917	794.00031	-13.39996	654.21387	-10.17630	662.09650	-950.78229	
6154	61.530	-703.80121	19.56023	-569.57111	710.58191	25.26571	-484.44424	-775.61096	-20.50616	648.81104	793.92963	-13.45963	654.20264	-10.15792	662.16309	-950.86047	
6155	61.540	-703.80591	19.54103	-569.58771	710.51508	25.34742	-484.41681	-775.59467	-20.42882	648.94556	793.76410	-13.51834	654.19342	-10.10434	662.26599	-951.00769	
6156	61.550	-704.18555	19.87068	-569.39233	710.42609	25.38653	-484.48306	-775.71832	-20.45322	648.91754	793.71497	-13.58181	654.19171	-10.23003	662.33691	-950.96802	
6157	61.560	-704.28925	20.00305	-569.33240	710.44855	25.47772	-484.42493	-775.83081	-20.48511	648.91907	793.66284	-13.59998	654.17950	-10.44014	662.42535	-950.80957	
6158	61.570	-704.41046	19.93519	-569.23474	710.34375	25.52929	-484.39545	-775.94037	-20.68053	648.85114	793.56177	-13.61213	654.16315	-10.56834	662.49866	-950.57709	
6159	61.580	-704.46814	19.96272	-569.24036	710.29053	25.52933	-484.34891	-776.07996	-20.58706	648.95093	793.36353	-13.47831	654.17828	-10.67038	662.48602	-950.49030	
6160	61.590	-704.55194	20.05376	-569.24408	710.21136	25.47764	-484.42551	-776.05853	-20.70831	648.90283	793.36731	-13.74122	654.14862	-10.75466	662.54346	-950.36694	
6161	61.600	-704.79028	20.36726	-569.25635	710.14526	25.57210	-484.40436	-776.18164	-20.73390	648.90527	793.35083	-13.73757	654.14221	-10.71589	662.64471	-950.12659	
6162	61.610	-704.74896	20.28774	-569.20837	710.02753	25.71644	-484.39056	-776.29163	-20.86261	648.88556	793.46838	-13.57323	654.26135	-10.79506	662.60718	-950.05261	
6163	61.620	-704.90631	20.23330	-569.15674	709.85632	25.68978	-484.33240	-776.37152	-20.80521	648.94623	793.17279	-13.82300	654.01642	-10.95627	662.73792	-949.98907	
6164	61.630	-704.98688	20.08681	-569.08478	709.69012	25.67383	-484.31558	-776.53345	-20.83025	648.90741	793.05701	-13.85583	654.02606	-11.08322	662.84570	-949.86835	
6165	61.640	-705.12579	20.27372	-569.25604	709.57117	25.69918	-484.27197	-776.61047	-20.91813	648.90790	792.92755	-13.78684	653.98187	-11.24419	662.79993	-949.99133	
6166	61.650	-705.12897	19.95174	-569.02155	709.36267	25.66990	-484.40039	-776.69458	-20.85555	648.92108	792.79614	-13.97029	653.97638	-11.22149	662.77539	-949.97876	
6167	61.660	-706.84186	22.97491	-568.72595	709.31140	25.68474	-484.34592	-776.76331	-20.93150	648.90546	792.73718	-13.87703	653.88110	-11.33374	662.81958	-950.08612	
6168	61.670	-705.38165	20.18443	-569.11615	709.29681	25.59178	-484.28296	-776.75403	-20.96652	648.89899	792.72437	-13.86809	653.89447	-11.40230	662.83362	-950.22241	
6169	61.680	-705.55341	20.20080	-569.13037	709.16907	25.63616	-484.25626	-776.79828	-21.00822	648.85748	792.66724	-13.85499	653.91028	-11.54316	662.86273	-950.28809	
6170	61.690	-705.58588	20.13378	-569.16040	708.98724	25.51573	-484.33408	-776.89484	-21.03279	648.88220	792.55609	-13.79983	653.95422	-11.55912	662.83722	-950.39685	
6171	61.700	-705.68494	20.01795	-569.19928	708.78375	25.44393	-484.43665	-776.97839	-21.01829	648.86389	792.36273	-13.77090	653.92548	-11.62356	662.76428	-950.41528	
6172	61.710	-705.69983	19.93115	-569.25995	708.71399	25.46699	-484.41974	-777.03784	-21.01590	648.88104	792.24817	-13.75145	653.92438	-11.71503	662.71277	-950.39691	
6173	61.720	-705.77338	19.95111	-569.26086	708.66638	25.47250	-484.41187	-777.08557	-21.03254	648.86810	792.16730	-13.68755	653.92871	-11.78561	662.73853	-950.37866	
6174	61.730	-705.89166	20.03907	-569.17157	708.60699	25.47021	-484.36493	-777.13904	-20.97645	648.92389	792.18701	-13.67121	653.93591	-11.81354	662.73206	-950.34839	
6175	61.740	-705.95209	20.00062	-569.16565	708.56714	25.46421	-484.37814	-777.21283	-21.03599	648.90192	792.09937	-13.70268	653.94727	-11.82724	662.70776	-950.26422	
6176	61.750	-705.97675	19.87964	-569.20978	708.62579	25.32094	-484.42841	-777.26227	-21.01092	648.92773	791.92761	-13.83867	653.93103	-11.91614	662.68140	-950.08997	
6177	61.760	-706.00385	19.70778	-569.26953	708.60876	25.32265	-484.44919	-777.30084	-20.96611	648.92786	791.82281	-13.82935	653.91425	-12.07968	662.53644	-950.10162	
6178	61.770	-706.01892	19.67380	-569.28625	708.57623	25.33527	-484.40588	-777.38586	-20.91693	648.88562	791.74335	-13.67599	653.90826	-12.22883	662.45520	-950.12494	
6179	61.780	-706.01971	19.67359	-569.32111	708.54877	25.32636	-484.44604	-777.50940	-20.68778	648.84265	791.97052	-13.27857	654.06482	-12.26414	662.40411	-950.17560	
6180	61.790	-706.08813	19.61277	-569.26965	708.36542	25.34496	-484.45163	-777.68201	-20.59145	648.86798	791.84259	-13.22621	654.02271	-12.36522	662.25000	-950.41199	
6181	61.800	-706.06891	19.44641	-569.29620	708.29956	25.22968	-484.49359	-777.74896	-20.49380	648.77771	791.83319	-13.14388	654.05054	-12.26437	662.00214	-950.57123	
6182	61.810	-706.10126	19.28655	-569.28351	708.28741	25.14349	-484.56665	-777.80493	-20.46661	648.75323	791.75800	-13.11063	654.01453	-12.35095	661.75159	-950.85785	
6183	61.820	-706.07800	19.31175	-569.50763	708.25543	25.00081	-484.56720	-777.90637	-20.28938	648.71698	791.66931	-13.09906	653.96411	-12.53227	661.48615	-951.12061	
6184	61.830	-706.36493	19.45778	-569.20819	708.26660	24.97170	-484.59586	-777.98108	-20.09673	648.68359	791.64679	-12.91621	653.95844	-12.74108	661.34802	-951.45172	
6185	61.840	-706.24213	19.13046	-569.33826	708.22302	24.90740	-484.58466	-777.82404	-19.88335	648.76172	791.33783	-12.89576	653.81598	-12.80376	661.22278	-951.68243	
6186	61.850	-706.41394	19.07063	-569.39813	708.22412	24.76620	-484.63455	-778.04816	-19.80213	648.69641	791.23254	-12.84507	653.79193	-12.76206	661.08038	-951.85394	
6187	61.860	-706.52264	19.02079	-569.53278	708.03888	24.75826	-484.80759	-778.13080	-19.69674	648.69226	791.14520	-12.76459	653.77637	-12.75478	660.96478	-951.86230	
6188	61.870	-706.60150	18.84587	-569.52716	708.06036	24.63482	-484.67001	-778.23016	-19.62963	648.66559	790.99927	-12.70247	653.76233	-12.82196	660.75293	-951.99384	
6189	61.880	-706.73352	18.73335	-569.56104	708.06329	24.26229	-484.71875	-778.28497	-19.42329	648.61578	790.98779	-12.59957	653.70959	-13.11661	660.60602	-952.12030	
6190	61.890	-706.74323	18.71521	-569.57867	708.02490	24.29201	-484.74966	-778.28351	-19.22875	648.50574	791.14838	-12.35067	653.67841	-13.16867	660.41779	-952.07684	
6191	61.900	-706.84436	18.57873	-569.57349	707.97931	24.13565	-484.76965	-778.31543	-19.15162	648.48022	791.13275	-12.20836	653.62872	-13.22315	660.15564	-952.02527	
